<?xml version="1.0" encoding="UTF-8" standalone="no"?>
<!-- Created with Inkscape (http://www.inkscape.org/) -->

<svg
   xmlns:dc="http://purl.org/dc/elements/1.1/"
   xmlns:cc="http://creativecommons.org/ns#"
   xmlns:rdf="http://www.w3.org/1999/02/22-rdf-syntax-ns#"
   xmlns:svg="http://www.w3.org/2000/svg"
   xmlns="http://www.w3.org/2000/svg"
   xmlns:sodipodi="http://sodipodi.sourceforge.net/DTD/sodipodi-0.dtd"
   xmlns:inkscape="http://www.inkscape.org/namespaces/inkscape"
   width="100"
   height="100"
   id="svg3832"
   version="1.1"
   inkscape:version="0.48.3.1 r9886"
   sodipodi:docname="New document 3">
  <defs
     id="defs3834" />
  <sodipodi:namedview
     id="base"
     pagecolor="#ffffff"
     bordercolor="#666666"
     borderopacity="1.0"
     inkscape:pageopacity="0.0"
     inkscape:pageshadow="2"
     inkscape:zoom="5.6"
     inkscape:cx="65.616357"
     inkscape:cy="51.454575"
     inkscape:document-units="px"
     inkscape:current-layer="layer1"
     showgrid="false"
     inkscape:window-width="1077"
     inkscape:window-height="784"
     inkscape:window-x="0"
     inkscape:window-y="44"
     inkscape:window-maximized="0" />
  <metadata
     id="metadata3837">
    <rdf:RDF>
      <cc:Work
         rdf:about="">
        <dc:format>image/svg+xml</dc:format>
        <dc:type
           rdf:resource="http://purl.org/dc/dcmitype/StillImage" />
        <dc:title></dc:title>
      </cc:Work>
    </rdf:RDF>
  </metadata>
  <g
     inkscape:label="Layer 1"
     inkscape:groupmode="layer"
     id="layer1"
     transform="translate(0,-952.36218)">
    <path
       sodipodi:nodetypes="cccccccccccsccccscccscccccccccssccsccccczcc"
       d="m 74.475907,1014.3531 c -0.0198,-1.2074 -0.14852,-2.5534 -0.38598,-4.0379 -0.6136,-4.7504 0.31669,-7.2641 2.79087,-7.5413 0.77192,10e-5 1.33604,0.6829 1.69233,2.0487 0.35628,1.3657 0.21772,3.2461 -0.41566,5.6411 -0.6136,2.395 -1.67256,4.8494 -3.17683,7.3631 -1.32617,1.9991 -2.7315,3.6222 -4.216,4.8692 l -0.38598,-1.4845 c 1.76161,-1.5835 3.12736,-3.8696 4.09725,-6.8584 m -8.81796,-8.1351 c 1.18761,-5.265 2.20696,-9.42163 3.05807,-12.46984 0.85112,-3.06794 2.05852,-6.29426 3.6222,-9.67896 1.56367,-3.38463 3.29559,-5.62128 5.19577,-6.70996 1.91994,-1.08859 3.42423,-1.26673 4.51289,-0.53442 1.1084,0.7126 1.6824,1.79134 1.72202,3.23621 0.0594,1.42517 -0.19795,3.1373 -0.77194,5.13639 -0.55424,1.99917 -1.21732,3.82016 -1.98924,5.46297 -0.77196,1.64288 -1.65277,3.3748 -2.64242,5.19577 -0.96989,1.82101 -1.83089,3.31544 -2.58304,4.48324 -0.73235,1.148 -2.93933,4.4634 -6.62089,9.9461 -1.12822,2.7117 -1.82098,5.1562 -2.07829,7.3335 -0.25733,2.1773 0.099,3.5529 1.06883,4.1269 0.96988,0.5542 2.21686,-0.188 3.74096,-2.2268 1.64283,-0.95 2.65234,-1.2965 1.36577,0.6235 -1.96378,2.4051 -3.67171,3.7311 -5.55208,3.7707 -1.86058,0.04 -3.06798,-0.9303 -3.62219,-2.9097 -0.55421,-1.9991 -0.55421,-4.4238 0,-7.274 0.2969,-1.3658 0.82142,-3.8696 1.57358,-7.5116 m 3.88,-2.6488 c -0.12085,1.0992 -0.0207,0.8956 0.23759,0.608 0.19591,-0.2407 1.35791,-2.1372 3.5504,-5.3865 2.20164,-3.26275 4.11615,-7.06568 5.67081,-11.43064 1.32145,-3.71023 2.4918,-5.91774 1.22504,-6.63035 -0.91325,-0.51134 -1.77787,-0.23586 -3.65823,2.61434 -1.86059,2.85029 -3.43416,6.46258 -4.72072,10.83688 -1.28658,4.37436 -1.86738,6.66007 -2.16427,8.56017 m -2.5658,7.9304 c -2.05852,2.7315 -3.10756,4.2754 -3.14716,4.6317 -2.81065,3.6024 -4.61917,5.276 -5.92554,5.7708 -0.61359,-0.2969 -2.70749,-0.6926 -1.92686,-1.3941 0,0 3.35845,-3.3495 4.77215,-5.0272 1.41371,-1.6777 3.45172,-3.3434 4.87821,-6.5932 l 1.3492,2.612"
       style="font-size:40px;font-style:normal;font-weight:normal;line-height:125%;letter-spacing:0px;word-spacing:0px;fill:#000000;fill-opacity:1;stroke:none;font-family:'Simplesnails ver 4.0 ';-inkscape-font-specification:'Simplesnails ver 4.0 '"
       id="path3810"
       inkscape:connector-curvature="0" />
    <path
       sodipodi:nodetypes="cccccccccccccccccccccc"
       d="m 81.426947,1002.6222 c 0.56567,-2.292 3.11587,-2.8613 3.7541,-1.6071 -0.099,1.148 0.77192,1.9002 2.61273,2.2564 1.84077,0.3563 3.02837,0.8808 3.56281,1.5736 0.55419,0.6928 0.56409,2.0585 0.0296,4.0972 -0.53443,2.019 -1.04906,4.3843 -1.54389,7.096 -0.0395,1.6626 0.46513,2.3257 1.5142,1.9892 1.91994,-0.574 4.49307,-2.6127 7.71941,-6.1162 l 0.35629,0.2969 0.11872,0.7126 c -2.45439,3.6618 -4.89888,6.324 -7.33345,7.9866 -1.08864,0.772 -2.22676,1.0293 -3.41435,0.772 -1.20741,-0.4553 -1.8111,-1.5835 -1.8111,-3.3847 0.0198,-1.8012 0.34638,-3.8696 0.97977,-6.2052 0.65317,-2.3356 0.76204,-3.8399 0.3266,-4.5129 -0.43547,-0.673 -1.30637,-1.1678 -2.61273,-1.4845 -1.28658,-0.3365 -2.29603,0 -3.02839,1.0094 -2.17727,3.1472 -3.72116,5.3047 -4.63166,6.4725 -0.91048,1.148 -1.69232,1.9892 -2.3455,2.5236 -0.67298,0.5345 -1.06885,0.5147 -1.1876,-0.059 l 1.87046,-3.0877 c 0.9105,-1.346 2.16739,-3.5529 3.77064,-6.6209"
       style="font-size:40px;font-style:normal;font-weight:normal;line-height:125%;letter-spacing:0px;word-spacing:0px;fill:#000000;fill-opacity:1;stroke:none;font-family:'Simplesnails ver 4.0 ';-inkscape-font-specification:'Simplesnails ver 4.0 '"
       id="path3815"
       inkscape:connector-curvature="0" />
    <path
       style="font-size:64px;font-style:normal;font-variant:normal;font-weight:normal;font-stretch:normal;line-height:125%;letter-spacing:0px;word-spacing:0px;fill:#ba00ff;fill-opacity:1;stroke:none;font-family:econ;-inkscape-font-specification:econ"
       d="m 40.383207,960.82772 c -1.74795,-0.0652 -3.52956,0.0652 -5.34472,0.39127 -6.18512,1.04346 -12.03404,4.30402 -17.54681,9.7817 -4.30269,4.1736 -7.5969199,8.99923 -9.8826799,14.47693 -2.2858202,5.4778 -3.2270202,11.08597 -2.8236302,16.82448 0.53781,5.9995 2.5546902,11.4773 6.0506201,16.4333 0.40336,0.5217 0.80674,1.0434 1.21013,1.5651 -4.0583899,1.2699 -7.9210701,2.162 -11.59703006,2.69 1.57907996,2.5184 3.42852996,4.8504 5.49597996,6.9939 4.3032601,-1.1524 8.3575801,-2.4877 12.1516701,-4.0105 7.50829,4.4644 18.39878,4.5421 25.73805,2.747 6.10267,-1.564 13.77812,-5.7378 16.46215,-9.2841 2.1889,-2.8921 1.09715,-2.6577 -0.69272,-1.4472 -0.77993,0.5274 0.87637,-1.5615 -0.51806,-1.0977 -0.63227,0.2102 -0.97627,0.6858 -4.58939,2.9938 -4.01447,2.4164 -19.35168,8.4411 -27.1224,1.5886 8.33637,-4.6952 15.59711,-10.5642 21.78225,-17.6071 5.37826,-6.1298 8.73971,-11.99881 10.08437,-17.60705 0.80669,-3.2605 0.80669,-6.65149 0,-10.17297 -0.80681,-3.78219 -2.42031,-6.91233 -4.8405,-9.39044 -2.42031,-2.47795 -5.37839,-4.17344 -8.87425,-5.08649 -1.68076,-0.45643 -3.39508,-0.71732 -5.14303,-0.78253 z m -1.51265,5.67339 c 3.3614,8e-5 6.18502,0.84783 8.47087,2.54324 2.01681,1.43472 3.49586,3.52149 4.43712,6.26029 0.94114,2.60853 1.2773,5.21697 1.00844,7.82537 -0.53789,4.69528 -2.82369,9.58612 -6.85737,14.67256 -5.91622,7.56453 -13.7148,13.69443 -23.39575,18.38963 l -0.80675,0.3912 -1.21013,0.5869 c -1.74798,-1.6954 -3.15979,-3.3909 -4.23543,-5.0864 -2.55474,-4.4344 -3.56318,-9.3904 -3.02531,-14.86824 0.53781,-4.82558 2.15131,-9.84686 4.84049,-15.06382 3.49589,-6.39065 7.59686,-10.89023 12.30294,-13.49876 2.68912,-1.43457 5.51275,-2.15189 8.47088,-2.15197 z"
       id="path3817"
       inkscape:connector-curvature="0"
       sodipodi:nodetypes="sccscccccccssscccccccscccccsccccccc" />
  </g>
</svg>
