<?xml version="1.0" encoding="UTF-8" standalone="no"?>
<!-- Created with Inkscape (http://www.inkscape.org/) -->

<svg
   xmlns:dc="http://purl.org/dc/elements/1.1/"
   xmlns:cc="http://creativecommons.org/ns#"
   xmlns:rdf="http://www.w3.org/1999/02/22-rdf-syntax-ns#"
   xmlns:svg="http://www.w3.org/2000/svg"
   xmlns="http://www.w3.org/2000/svg"
   xmlns:sodipodi="http://sodipodi.sourceforge.net/DTD/sodipodi-0.dtd"
   xmlns:inkscape="http://www.inkscape.org/namespaces/inkscape"
   width="128"
   height="128"
   id="svg3041"
   version="1.1"
   inkscape:version="0.48.3.1 r9886"
   sodipodi:docname="eosbr-logo.svg">
  <defs
     id="defs3043">
    <inkscape:path-effect
       effect="skeletal"
       id="path-effect3060"
       is_visible="true"
       pattern="M 0,5 C 0,2.24 2.24,0 5,0 7.76,0 10,2.24 10,5 10,7.76 7.76,10 5,10 2.24,10 0,7.76 0,5 z"
       copytype="single_stretched"
       prop_scale="1"
       scale_y_rel="false"
       spacing="0"
       normal_offset="0"
       tang_offset="0"
       prop_units="false"
       vertical_pattern="false"
       fuse_tolerance="0" />
    <inkscape:path-effect
       effect="skeletal"
       id="path-effect3056"
       is_visible="true"
       pattern="M 0,5 C 0,2.24 2.24,0 5,0 7.76,0 10,2.24 10,5 10,7.76 7.76,10 5,10 2.24,10 0,7.76 0,5 z"
       copytype="single_stretched"
       prop_scale="1"
       scale_y_rel="false"
       spacing="0"
       normal_offset="0"
       tang_offset="0"
       prop_units="false"
       vertical_pattern="false"
       fuse_tolerance="0" />
    <inkscape:path-effect
       effect="skeletal"
       id="path-effect3052"
       is_visible="true"
       pattern="M 0,5 C 0,2.24 2.24,0 5,0 7.76,0 10,2.24 10,5 10,7.76 7.76,10 5,10 2.24,10 0,7.76 0,5 z"
       copytype="single_stretched"
       prop_scale="1"
       scale_y_rel="false"
       spacing="0"
       normal_offset="0"
       tang_offset="0"
       prop_units="false"
       vertical_pattern="false"
       fuse_tolerance="0" />
    <inkscape:path-effect
       effect="spiro"
       id="path-effect3050"
       is_visible="true" />
    <inkscape:path-effect
       effect="skeletal"
       id="path-effect3070"
       is_visible="true"
       pattern="M 0,0 1,0"
       copytype="single_stretched"
       prop_scale="1"
       scale_y_rel="false"
       spacing="0"
       normal_offset="0"
       tang_offset="0"
       prop_units="false"
       vertical_pattern="false"
       fuse_tolerance="0" />
    <inkscape:path-effect
       effect="spiro"
       id="path-effect3068"
       is_visible="true" />
  </defs>
  <sodipodi:namedview
     id="base"
     pagecolor="#ffffff"
     bordercolor="#666666"
     borderopacity="1.0"
     inkscape:pageopacity="0.0"
     inkscape:pageshadow="2"
     inkscape:zoom="2.8284271"
     inkscape:cx="6.0789996"
     inkscape:cy="53.283922"
     inkscape:current-layer="layer1"
     showgrid="true"
     inkscape:document-units="px"
     inkscape:grid-bbox="true"
     borderlayer="true"
     inkscape:showpageshadow="false"
     inkscape:window-width="1366"
     inkscape:window-height="722"
     inkscape:window-x="0"
     inkscape:window-y="24"
     inkscape:window-maximized="1" />
  <metadata
     id="metadata3046">
    <rdf:RDF>
      <cc:Work
         rdf:about="">
        <dc:format>image/svg+xml</dc:format>
        <dc:type
           rdf:resource="http://purl.org/dc/dcmitype/StillImage" />
        <dc:title></dc:title>
      </cc:Work>
    </rdf:RDF>
  </metadata>
  <g
     id="layer1"
     inkscape:label="Layer 1"
     inkscape:groupmode="layer"
     transform="translate(0,64)">
    <text
       xml:space="preserve"
       style="font-size:48px;font-style:normal;font-variant:normal;font-weight:normal;font-stretch:normal;line-height:125%;letter-spacing:0px;word-spacing:0px;fill:#000000;fill-opacity:1;stroke:none;font-family:'Lobster 1.4';-inkscape-font-specification:'Lobster 1.4'"
       x="84"
       y="59.818184"
       id="text3049"
       sodipodi:linespacing="125%"
       transform="translate(0,-64)"><tspan
         sodipodi:role="line"
         id="tspan3051"
         x="84"
         y="59.818184" /></text>
    <text
       xml:space="preserve"
       style="font-size:64px;font-style:normal;font-variant:normal;font-weight:normal;font-stretch:normal;line-height:125%;letter-spacing:0px;word-spacing:0px;fill:#000000;fill-opacity:1;stroke:none;font-family:econ;-inkscape-font-specification:econ"
       x="180.72726"
       y="136"
       id="text2989"
       sodipodi:linespacing="125%"
       transform="translate(0,-64)"><tspan
         sodipodi:role="line"
         id="tspan2991"
         x="180.72726"
         y="136" /></text>
    <path
       style="fill:#1a1a1a;fill-opacity:1;stroke:none"
       d="M 63.999998,-61.999998 C 29.758345,-61.999998 2.0000008,-34.241653 2.0000008,0 c 0,34.241653 27.7583442,61.999998 61.9999972,61.999998 C 98.241651,61.999998 126,34.241653 126,0 126,-34.241653 98.241651,-61.999998 63.999998,-61.999998 z m 0,6.038541 c 30.921251,0 55.993752,25.040207 55.993752,55.961457 0,30.921251 -25.072501,55.993748 -55.993752,55.993748 C 33.078747,55.993748 8.0062507,30.921251 8.0062507,0 c 0,-30.92125 25.0724963,-55.961457 55.9937473,-55.961457 z"
       id="path3008"
       inkscape:connector-curvature="0"
       inkscape:export-filename="/home/cjgomes/Dropbox/elementary/elementary-projects/elementary br/Logos (2)/128/g3012.png"
       inkscape:export-xdpi="36.290001"
       inkscape:export-ydpi="36.290001" />
    <g
       id="g3012"
       transform="matrix(1.1105949,0,0,1.1105949,182.63433,-4.1793971)"
       style="fill:#1a1a1a;fill-opacity:1"
       inkscape:export-xdpi="36.290001"
       inkscape:export-ydpi="36.290001">
      <path
         inkscape:export-ydpi="36.599998"
         inkscape:export-xdpi="36.599998"
         inkscape:export-filename="/home/cjgomes/Dropbox/elementary/elementary-projects/elementary br/Logos (2)/128/logo10.png"
         sodipodi:nodetypes="cccccccccccsccccscccscccccccccssccsccccczcc"
         d="m -81.23656,18.962012 c -0.0198,-1.207386 -0.14852,-2.553335 -0.38598,-4.03785 -0.6136,-4.750396 0.31669,-7.2641533 2.79087,-7.5412813 0.77192,2.2e-5 1.33604,0.682892 1.69233,2.048617 0.35628,1.3657593 0.21772,3.2461293 -0.41566,5.6411143 -0.6136,2.39501 -1.67256,4.849387 -3.17683,7.363139 -1.32617,1.999136 -2.7315,3.622192 -4.216,4.869173 l -0.38598,-1.484503 c 1.76161,-1.583468 3.12736,-3.869601 4.09725,-6.858409 m -8.81796,-8.135082 c 1.18761,-5.2650183 2.20696,-9.4216243 3.05807,-12.4698333 0.85112,-3.06794 2.05852,-6.294259 3.6222,-9.6789637 1.56367,-3.384627 3.29559,-5.621278 5.19577,-6.70996 1.91994,-1.088589 3.42423,-1.266729 4.51289,-0.53442 1.1084,0.712607 1.6824,1.791346 1.72202,3.236219 0.0594,1.425166 -0.19795,3.137293 -0.77194,5.136383 -0.55424,1.9991677 -1.21732,3.8201587 -1.98924,5.4629747 -0.77196,1.642882 -1.65277,3.374802 -2.64242,5.19576303 -0.96989,1.82101797 -1.83089,3.31541697 -2.58304,4.48320297 -0.73235,1.148038 -2.93933,4.463426 -6.62089,9.9461763 -1.12822,2.711704 -1.82098,5.156185 -2.07829,7.333448 -0.25733,2.177276 0.099,3.552915 1.06883,4.126922 0.96988,0.554215 2.21686,-0.188036 3.74096,-2.226757 1.64283,-0.950078 2.65234,-1.296504 1.36577,0.623451 -1.96378,2.405128 -3.67171,3.731094 -5.55208,3.770681 -1.86058,0.03958 -3.06798,-0.930289 -3.622189,-2.909627 -0.55421,-1.999129 -0.55421,-4.423815 0,-7.274069 0.296899,-1.365733 0.821419,-3.869595 1.573579,-7.511591 m 3.88,-2.6487473 c -0.12085,1.099142 -0.0207,0.895543 0.23759,0.607957 0.19591,-0.240671 1.35791,-2.137224 3.5504,-5.386459 2.20164,-3.26278897 4.11615,-7.065722 5.67081,-11.430681 1.32145,-3.7102297 2.4918,-5.9177457 1.22504,-6.6303517 -0.91325,-0.511339 -1.77787,-0.235864 -3.65823,2.614341 -1.86059,2.8502857 -3.43416,6.4625747 -4.72072,10.8368777 -1.28658,4.374363 -1.86738,6.660049 -2.16427,8.560192 m -2.5658,7.9303843 c -2.05852,2.731496 -3.107559,4.275379 -3.147159,4.631652 -2.81065,3.6024 -4.90042,5.619763 -6.20679,6.114596 -1.14484,0.10935 -3.738741,-0.56764 -2.958111,-1.269111 0,0 4.670951,-3.818282 6.084651,-5.495941 1.41371,-1.677659 3.451719,-3.343354 4.878209,-6.593241 l 1.3492,2.612045"
         style="font-size:40px;font-style:normal;font-weight:normal;line-height:125%;letter-spacing:0px;word-spacing:0px;fill:#1a1a1a;fill-opacity:1;stroke:none;font-family:'Simplesnails ver 4.0 ';-inkscape-font-specification:'Simplesnails ver 4.0 '"
         id="path3882"
         inkscape:connector-curvature="0" />
      <path
         inkscape:export-ydpi="36.599998"
         inkscape:export-xdpi="36.599998"
         inkscape:export-filename="/home/cjgomes/Dropbox/elementary/elementary-projects/elementary br/Logos (2)/128/logo10.png"
         sodipodi:nodetypes="cccccccccccccccccccccc"
         d="m -74.28552,7.2311147 c 0.56567,-2.291988 3.11587,-2.861279 3.7541,-1.607101 -0.099,1.148036 0.77192,1.900185 2.61273,2.256446 1.84077,0.3563 3.02837,0.880824 3.56281,1.573576 0.55419,0.6927833 0.56409,2.0585263 0.0296,4.0972303 -0.53443,2.018936 -1.04906,4.384243 -1.54389,7.095929 -0.0395,1.662647 0.46513,2.325726 1.5142,1.989235 1.91994,-0.574004 4.49307,-2.61272 7.71941,-6.116156 l 0.35629,0.296901 0.11872,0.712562 c -2.45439,3.661781 -4.89888,6.323988 -7.33345,7.986631 -1.08864,0.771941 -2.22676,1.029255 -3.41435,0.771941 -1.20741,-0.455248 -1.8111,-1.583468 -1.8111,-3.384668 0.0198,-1.801194 0.34638,-3.8696 0.97977,-6.205226 0.65317,-2.335609 0.76204,-3.839904 0.3266,-4.512892 -0.43547,-0.672961 -1.30637,-1.167796 -2.61273,-1.484505 -1.28658,-0.336472 -2.29603,1.5e-5 -3.02839,1.009464 -2.17727,3.147159 -3.72116,5.304636 -4.63166,6.472436 -0.91048,1.148023 -1.69232,1.989242 -2.3455,2.523656 -0.67298,0.534427 -1.06885,0.514633 -1.1876,-0.05938 l 1.87046,-3.087768 c 0.9105,-1.34594 2.16739,-3.552901 3.77064,-6.620888"
         style="font-size:40px;font-style:normal;font-weight:normal;line-height:125%;letter-spacing:0px;word-spacing:0px;fill:#1a1a1a;fill-opacity:1;stroke:none;font-family:'Simplesnails ver 4.0 ';-inkscape-font-specification:'Simplesnails ver 4.0 '"
         id="path3884"
         inkscape:connector-curvature="0" />
      <path
         inkscape:export-ydpi="36.599998"
         inkscape:export-xdpi="36.599998"
         inkscape:export-filename="/home/cjgomes/Dropbox/elementary/elementary-projects/elementary br/Logos (2)/128/logo10.png"
         style="font-size:64px;font-style:normal;font-variant:normal;font-weight:normal;font-stretch:normal;line-height:125%;letter-spacing:0px;word-spacing:0px;fill:#1a1a1a;fill-opacity:1;stroke:none;font-family:econ;-inkscape-font-specification:econ"
         d="m -115.32926,-34.563344 c -1.74795,-0.06521 -3.52956,0.06525 -5.34472,0.391268 -6.18512,1.043466 -12.03404,4.304028 -17.54681,9.781706 -4.30269,4.173595 -7.59692,8.999232 -9.88268,14.4769237 -2.28582,5.477803 -3.22702,11.085977 -2.82363,16.824536 0.53781,5.9994873 2.55469,11.4772253 6.05062,16.4332643 0.40336,0.521717 0.80674,1.043402 1.21013,1.565072 -4.05839,1.269885 -7.92107,2.161976 -11.59703,2.689969 1.57908,2.518484 3.42853,4.850459 5.49598,6.993921 4.30326,-1.152395 8.35758,-2.487637 12.15167,-4.010499 7.50829,4.464391 18.39878,4.542116 25.73805,2.747068 6.10267,-1.564001 13.778121,-5.737878 16.462151,-9.284142 2.1889,-2.892082 1.09715,-2.657667 -0.69272,-1.447221 -0.77993,0.527445 0.87637,-1.561442 -0.51806,-1.097715 -0.63227,0.210268 -0.97627,0.685812 -4.589391,2.993796 -4.01447,2.416436 -19.35168,8.44109 -27.1224,1.588628 8.33637,-4.695187 15.59711,-10.56421 21.78225,-17.6070693 5.37826,-6.129828 8.739711,-11.998836 10.084371,-17.607071 0.80669,-3.2605007 0.80669,-6.6514967 0,-10.1729747 -0.80681,-3.782185 -2.42031,-6.912332 -4.840501,-9.390437 -2.42031,-2.477948 -5.37839,-4.173439 -8.87425,-5.086487 -1.68076,-0.456438 -3.39508,-0.71732 -5.14303,-0.782536 z m -1.51265,5.673389 c 3.3614,7.8e-5 6.18502,0.847832 8.47087,2.543243 2.01681,1.434718 3.49586,3.521493 4.43712,6.260292 0.94114,2.608523 1.2773,5.216968 1.00844,7.825365 -0.53789,4.6952817 -2.82369,9.5861187 -6.85737,14.6725597 -5.91622,7.564561 -13.7148,13.6944173 -23.39575,18.3896053 l -0.80675,0.391269 -1.21013,0.586901 c -1.74798,-1.695459 -3.15979,-3.390965 -4.23543,-5.086487 -2.55474,-4.434335 -3.56318,-9.3903893 -3.02531,-14.8681913 0.53781,-4.825589 2.15131,-9.84686 4.84049,-15.0638267 3.49589,-6.390647 7.59686,-10.890232 12.30294,-13.498755 2.68912,-1.434577 5.51275,-2.151897 8.47088,-2.151975 z"
         id="path3886"
         inkscape:connector-curvature="0"
         sodipodi:nodetypes="sccscccccccssscccccccscccccsccccccc" />
    </g>
  </g>
</svg>
